<?xml version="1.0" encoding="UTF-8"?>
<!DOCTYPE svg PUBLIC "-//W3C//DTD SVG 1.1//EN" "http://www.w3.org/Graphics/SVG/1.1/DTD/svg11.dtd">
<svg xmlns="http://www.w3.org/2000/svg" version="1.1" width="365px" height="351px" style="shape-rendering:geometricPrecision; text-rendering:geometricPrecision; image-rendering:optimizeQuality; fill-rule:evenodd; clip-rule:evenodd" xmlns:xlink="http://www.w3.org/1999/xlink">
<g><path style="opacity:1" fill="#fefefe" d="M -0.5,-0.5 C 121.167,-0.5 242.833,-0.5 364.5,-0.5C 364.5,116.5 364.5,233.5 364.5,350.5C 242.833,350.5 121.167,350.5 -0.5,350.5C -0.5,233.5 -0.5,116.5 -0.5,-0.5 Z"/></g>
<g><path style="opacity:1" fill="#00a1e8" d="M 168.5,46.5 C 207.765,45.0829 241.598,57.7496 270,84.5C 270.667,87.1667 270.667,89.8333 270,92.5C 238.185,59.1176 199.352,46.2843 153.5,54C 107.253,64.9124 76.0861,92.7457 60,137.5C 45.7851,196.192 63.2851,242.692 112.5,277C 158.432,302.495 203.765,301.495 248.5,274C 256.985,267.514 264.818,260.347 272,252.5C 272.79,255.634 272.457,258.634 271,261.5C 233.81,296.673 190.31,307.84 140.5,295C 86.9306,276.377 56.7639,238.877 50,182.5C 48.615,130.091 70.115,90.258 114.5,63C 131.493,53.7584 149.493,48.2584 168.5,46.5 Z"/></g>
<g><path style="opacity:1" fill="#00a1e8" d="M 171.5,106.5 C 197.601,104.695 219.101,113.695 236,133.5C 250.741,129.078 259.574,134.411 262.5,149.5C 262.141,157.559 258.308,163.226 251,166.5C 254.006,202.336 239.506,228.169 207.5,244C 175.399,255.391 147.732,248.724 124.5,224C 110.447,226.982 102.113,221.482 99.5,207.5C 99.7275,201.047 102.561,196.047 108,192.5C 104.064,155.53 118.564,128.697 151.5,112C 158.213,109.81 164.88,107.977 171.5,106.5 Z"/></g>
<g><path style="opacity:1" fill="#fefffe" d="M 171.5,111.5 C 195.621,109.813 215.621,117.979 231.5,136C 201.444,159.375 170.777,182.042 139.5,204C 136.794,206.371 134.461,209.037 132.5,212C 129.178,212.059 126.344,213.226 124,215.5C 107.889,188.507 108.889,162.173 127,136.5C 138.761,122.54 153.594,114.207 171.5,111.5 Z"/></g>
<g><path style="opacity:1" fill="#fefffe" d="M 240.5,136.5 C 252.129,135.704 257.629,141.037 257,152.5C 255.862,156.448 253.529,159.448 250,161.5C 247.579,153.326 244.079,145.659 239.5,138.5C 239.863,137.817 240.196,137.15 240.5,136.5 Z"/></g>
<g><path style="opacity:1" fill="#fefffe" d="M 233.5,141.5 C 235.394,142.048 237.06,143.048 238.5,144.5C 253.314,177.125 247.647,205.625 221.5,230C 193.5,249.333 165.5,249.333 137.5,230C 134.667,227.167 131.833,224.333 129,221.5C 128.835,219.322 129.668,217.489 131.5,216C 165.745,191.39 199.745,166.557 233.5,141.5 Z"/></g>
<g><path style="opacity:1" fill="#fefffe" d="M 109.5,197.5 C 112.818,204.806 116.152,212.139 119.5,219.5C 109.352,219.52 104.518,214.52 105,204.5C 105.904,201.767 107.404,199.433 109.5,197.5 Z"/></g>
</svg>
